<svg width="33" height="33" viewBox="0 0 33 33" fill="none" xmlns="http://www.w3.org/2000/svg">
<path d="M9 0L16.445 8.12753L7.96485 16.6077L0 8.5L9 0Z" fill="#1E1E1E"/>
<path d="M24 3.93403e-07L33.0076 9.00763L25.1494 16.8659L16.1417 7.85828L24 3.93403e-07Z" fill="#1E1E1E"/>
<path d="M24.9736 16.4707L33.006 24.5031L24.5585 33.0002L16.5 25L24.9736 16.4707Z" fill="#202020"/>
<path d="M8.20703 16.2959L16.71 24.7989L8.61448 33.006L0 24L8.20703 16.2959Z" fill="#1E1E1E"/>
<path d="M16.453 7.95009L24.956 16.4531L16.5 25L7.95003 16.4531L16.453 7.95009Z" fill="#303030"/>
<path d="M8 16.5L0 24V8.5L8 16.5Z" fill="#171717"/>
<path d="M25 17L33.006 24.5031L33 9L25 17Z" fill="#171717"/>
<path d="M16 8L24 3.93403e-07L9 0L16 8Z" fill="#171717"/>
<path d="M16.5234 24.9764L8.61448 33.006L24.5585 33.0002L16.5234 24.9764Z" fill="#171717"/>
<path d="M33 9L24 3.93403e-07H33V9Z" fill="#171717"/>
<path d="M9 0L0 8.5L2.44392e-07 3.93403e-07L9 0Z" fill="#171717"/>
<path d="M0 24L8.61448 33.006L7.86808e-07 33L0 24Z" fill="#171717"/>
<path d="M24.5585 33.0002L33.006 24.5031L33 33L24.5585 33.0002Z" fill="#171717"/>
</svg>
