<svg width="33" height="33" viewBox="0 0 33 33" fill="none" xmlns="http://www.w3.org/2000/svg">
<path d="M16.4853 8.00732L24.9706 16.4926L16.4853 24.9779L8.00001 16.4926L16.4853 8.00732Z" fill="#F8B920"/>
<path d="M24.4853 16.0073L32.9706 24.4926L24.4853 32.9779L16 24.4926L24.4853 16.0073Z" fill="#C58008"/>
<path d="M8.48529 16.0073L16.9706 24.4926L8.48529 32.9779L9.40565e-06 24.4926L8.48529 16.0073Z" fill="#D7950D"/>
<path d="M8.48529 0.00732422L16.9706 8.49261L8.48529 16.9779L9.40565e-06 8.49261L8.48529 0.00732422Z" fill="#F0AE28"/>
<path d="M24.4853 0.00732422L32.9706 8.49261L24.4853 16.9779L16 8.49261L24.4853 0.00732422Z" fill="#D7950D"/>
<path d="M24.5 0.00732409L24.9706 0.492636L16.4853 8.97792L8.00001 0.492636L8.5 0.00735446L24.5 0.00732409Z" fill="#EEA513"/>
<path d="M0.0073242 8.48526L0.492636 8.01469L8.97792 16.5L0.492636 24.9853L0.00735457 24.4853L0.0073242 8.48526Z" fill="#ECA413"/>
<path d="M8.47794 32.9779L8.00736 32.4926L16.4926 24.0073L24.9779 32.4926L24.4779 32.9779L8.47794 32.9779Z" fill="#EEA513"/>
<path d="M32.9706 24.5073L32.4853 24.9779L24 16.4926L32.4853 8.0073L32.9706 8.50729L32.9706 24.5073Z" fill="#EDA513"/>
<path d="M1.07324e-07 9V0H9L1.07324e-07 9Z" fill="#ECA413"/>
<path d="M33 9V0H24L33 9Z" fill="#ECA413"/>
<path d="M24 33H33V24L24 33Z" fill="#ECA513"/>
<path d="M9 33H1.07324e-07L0 24L9 33Z" fill="#EDA513"/>
</svg>
