<svg width="33" height="33" viewBox="0 0 33 33" fill="none" xmlns="http://www.w3.org/2000/svg">
<path d="M8.00009 3.97294e-07L16.4451 8.12753L7.96494 16.6077L0.115173 8.75797L8.00009 3.97294e-07Z" fill="#1E1E1E"/>
<path d="M24.0001 3.93403e-07L33.0077 9.00763L25.1494 16.8659L16.1418 7.85828L24.0001 3.93403e-07Z" fill="#1E1E1E"/>
<path d="M24.9737 16.4707L33.0061 24.5031L24.5031 33.006L16.4707 24.9737L24.9737 16.4707Z" fill="#202020"/>
<path d="M8.20712 16.2959L16.7101 24.7989L8.50299 33.006L0 24.503L8.20712 16.2959Z" fill="#1E1E1E"/>
<path d="M16.503 8L25.006 16.503L16.503 25.006L8.00003 16.503L16.503 8Z" fill="#303030"/>
<path d="M8.00009 16.5L9.06763e-05 24.5L9.08989e-05 8.5L8.00009 16.5Z" fill="#171717"/>
<path d="M25.0001 17L33.0001 25V9L25.0001 17Z" fill="#171717"/>
<path d="M16.0001 8L24.0001 3.93403e-07L8.00009 3.97294e-07L16.0001 8Z" fill="#171717"/>
<path d="M16.5 25L8.00009 33L25.0001 33L16.5 25Z" fill="#171717"/>
<path d="M33.0001 9L24.0001 3.93403e-07H33.0001V9Z" fill="#171717"/>
<path d="M9.00009 0L9.07498e-05 9L9.03564e-05 3.93403e-07L9.00009 0Z" fill="#171717"/>
<path d="M9.0112e-05 24L9.00009 33H9.08989e-05L9.0112e-05 24Z" fill="#171717"/>
<path d="M24.0001 33L33.0001 24V33H24.0001Z" fill="#171717"/>
</svg>
