<svg width="33" height="33" viewBox="0 0 33 33" fill="none" xmlns="http://www.w3.org/2000/svg">
<path d="M16.4853 8.00733L24.9706 16.4926L16.4853 24.9779L8.00001 16.4926L16.4853 8.00733Z" fill="#C9D8ED"/>
<path d="M24.4853 16.0073L32.9706 24.4926L24.4853 32.9779L16 24.4926L24.4853 16.0073Z" fill="#BBCCE3"/>
<path d="M8.48529 16.0073L12.7279 20.25L16.9706 24.4926L12.7279 28.7352L8.48529 32.9779L9.40565e-06 24.4926L8.48529 16.0073Z" fill="#D2DFF2"/>
<path d="M8.48529 0.00732422L16.9706 8.49261L8.48529 16.9779L9.40565e-06 8.49261L8.48529 0.00732422Z" fill="#D0E0F6"/>
<path d="M24.4853 0.00732422L32.9706 8.49261L24.4853 16.9779L16 8.49261L24.4853 0.00732422Z" fill="#D2DFF2"/>
<path d="M24.4853 0.00732422L24.9559 0.493124L16.4706 8.9784L7.9853 0.493124L8.48529 0.00732422H24.4853Z" fill="#C4D1E3"/>
<path d="M0.0073242 8.48526L0.492636 8.01469L8.97792 16.5L0.492636 24.9852L0.00735457 24.4853L0.0073242 8.48526Z" fill="#C4D1E3"/>
<path d="M8.47794 32.9779L8.00736 32.4926L16.4926 24.0073L24.9779 32.4926L24.4779 32.9779L8.47794 32.9779Z" fill="#C4D1E3"/>
<path d="M32.9706 24.5073L32.4853 24.9779L24 16.4926L32.4853 8.0073L32.9706 8.50729L32.9706 24.5073Z" fill="#C4D1E3"/>
<path d="M1.07324e-07 9V0H9L1.07324e-07 9Z" fill="#C1CCDB"/>
<path d="M33 9V0H24L28.5 4.5L33 9Z" fill="#C1CCDB"/>
<path d="M24 33H33V24L28.5 28.5L24 33Z" fill="#C1CCDB"/>
<path d="M9 33H1.07324e-07L0 24L9 33Z" fill="#C1CCDB"/>
</svg>
