<svg width="33" height="33" viewBox="0 0 33 33" fill="none" xmlns="http://www.w3.org/2000/svg">
<path d="M16.4853 8.00781L24.9706 16.4931L16.4853 24.9784L8.00001 16.4931L16.4853 8.00781Z" fill="#54759E"/>
<path d="M24.4853 16.0078L32.9706 24.4931L24.4853 32.9784L16 24.4931L24.4853 16.0078Z" fill="#486B96"/>
<path d="M8.48529 16.0078L16.9706 24.4931L8.48529 32.9784L4.24265 28.7357L9.40565e-06 24.4931L8.48529 16.0078Z" fill="#59789F"/>
<path d="M8.48529 0.0078125L12.7279 4.25045L16.9706 8.49309L8.48529 16.9784L9.40565e-06 8.49309L8.48529 0.0078125Z" fill="#6C8FBA"/>
<path d="M24.4853 0.0078125L28.7279 4.25045L32.9706 8.49309L24.4853 16.9784L16 8.49309L24.4853 0.0078125Z" fill="#59789F"/>
<path d="M24.5 0.00781237L24.9706 0.493124L16.4853 8.9784L8.00001 0.493124L8.5 0.00784274L24.5 0.00781237Z" fill="#466892"/>
<path d="M0.0073242 8.48575L0.492636 8.01518L8.97792 16.5005L0.492636 24.9857L0.00735457 24.4857L0.0073242 8.48575Z" fill="#466892"/>
<path d="M8.47794 32.9784L8.00736 32.4931L16.4926 24.0078L24.9779 32.4931L24.4779 32.9784L8.47794 32.9784Z" fill="#466892"/>
<path d="M32.9706 24.5078L32.4853 24.9784L24 16.4931L32.4853 8.00779L32.9706 8.50778L32.9706 24.5078Z" fill="#466892"/>
<path d="M1.07324e-07 9.00049V0.000488281H9L1.07324e-07 9.00049Z" fill="#3E6390"/>
<path d="M33 9.00049V0.000488281H24L33 9.00049Z" fill="#3E6390"/>
<path d="M24 33.0005H33V24.0005L28.5 28.5005L24 33.0005Z" fill="#3E6390"/>
<path d="M9 33.0005H1.07324e-07L0 24.0005L9 33.0005Z" fill="#3E6390"/>
</svg>
