<svg width="33" height="33" viewBox="0 0 33 33" fill="none" xmlns="http://www.w3.org/2000/svg">
<path d="M9 0.000488281L16.445 8.12802L7.96485 16.6082L0 8.50049L9 0.000488281Z" fill="#031630"/>
<path d="M24 0.000488675L33.0076 9.00812L25.1494 16.8664L16.1417 7.85877L24 0.000488675Z" fill="#03142A"/>
<path d="M24.9736 16.4712L33.006 24.5035L28.7822 28.7521L24.5585 33.0007L16.5 25.0005L24.9736 16.4712Z" fill="#010B19"/>
<path d="M8.20703 16.2964L16.71 24.7994L8.61448 33.0065L0 24.0005L8.20703 16.2964Z" fill="#03142A"/>
<path d="M16.453 7.95058L24.956 16.4536L16.5 25.0005L7.95003 16.4536L16.453 7.95058Z" fill="#000D1E"/>
<path d="M8 16.5005L0 24.0005V8.50049L8 16.5005Z" fill="#01070F"/>
<path d="M25 17.0005L33.006 24.5035L33 9.00049L25 17.0005Z" fill="#01070F"/>
<path d="M16 8.00049L24 0.000488675L9 0.000488281L16 8.00049Z" fill="#01070F"/>
<path d="M16.5234 24.9769L8.61448 33.0065L24.5585 33.0007L16.5234 24.9769Z" fill="#01070F"/>
<path d="M33 9.00049L24 0.000488675H33V9.00049Z" fill="#00050B"/>
<path d="M9 0.000488281L0 8.50049L2.44392e-07 0.000488675L9 0.000488281Z" fill="#00050B"/>
<path d="M0 24.0005L8.61448 33.0065L7.86808e-07 33.0005L0 24.0005Z" fill="#00050B"/>
<path d="M24.5585 33.0007L28.7822 28.7521L33.006 24.5035L33 33.0005L24.5585 33.0007Z" fill="#00050B"/>
</svg>
